<mxfile host="app.diagrams.net" modified="2024-01-08T05:36:11.222Z" agent="Mozilla/5.0 (Windows NT 10.0; Win64; x64) AppleWebKit/537.36 (KHTML, like Gecko) Chrome/120.0.0.0 Safari/537.36 Edg/120.0.0.0" etag="j_ta-g7xc90hSoHROvdl" version="22.1.17" type="github">
  <diagram name="第 1 页" id="77szF1jyZKYPrpToGMBW">
    <mxGraphModel dx="2000" dy="665" grid="1" gridSize="10" guides="1" tooltips="1" connect="1" arrows="1" fold="1" page="1" pageScale="1" pageWidth="827" pageHeight="1169" math="0" shadow="0">
      <root>
        <mxCell id="0" />
        <mxCell id="1" parent="0" />
        <mxCell id="i4SUyxcihNLNijWqHPjk-1" value="P1&lt;br&gt;冷作下料初始化" style="ellipse;whiteSpace=wrap;html=1;" parent="1" vertex="1">
          <mxGeometry x="530" y="280" width="160" height="50" as="geometry" />
        </mxCell>
        <mxCell id="i4SUyxcihNLNijWqHPjk-10" style="edgeStyle=orthogonalEdgeStyle;rounded=0;orthogonalLoop=1;jettySize=auto;html=1;entryX=0;entryY=0.5;entryDx=0;entryDy=0;exitX=0.45;exitY=0.967;exitDx=0;exitDy=0;exitPerimeter=0;" parent="1" source="i4SUyxcihNLNijWqHPjk-2" target="i4SUyxcihNLNijWqHPjk-1" edge="1">
          <mxGeometry relative="1" as="geometry">
            <Array as="points">
              <mxPoint x="354" y="305" />
            </Array>
          </mxGeometry>
        </mxCell>
        <mxCell id="i4SUyxcihNLNijWqHPjk-49" value="排产计划（二级计划的结果）" style="edgeLabel;html=1;align=center;verticalAlign=middle;resizable=0;points=[];" parent="i4SUyxcihNLNijWqHPjk-10" vertex="1" connectable="0">
          <mxGeometry x="0.249" y="5" relative="1" as="geometry">
            <mxPoint x="31" y="-10" as="offset" />
          </mxGeometry>
        </mxCell>
        <mxCell id="i4SUyxcihNLNijWqHPjk-2" value="制造部计划员" style="rounded=0;whiteSpace=wrap;html=1;" parent="1" vertex="1">
          <mxGeometry x="300" y="120" width="120" height="40" as="geometry" />
        </mxCell>
        <mxCell id="i4SUyxcihNLNijWqHPjk-8" value="" style="endArrow=classic;html=1;rounded=0;" parent="1" edge="1">
          <mxGeometry width="50" height="50" relative="1" as="geometry">
            <mxPoint x="60" y="120" as="sourcePoint" />
            <mxPoint x="180" y="120" as="targetPoint" />
          </mxGeometry>
        </mxCell>
        <mxCell id="i4SUyxcihNLNijWqHPjk-9" value="" style="shape=partialRectangle;whiteSpace=wrap;html=1;bottom=1;right=1;left=1;top=0;fillColor=none;routingCenterX=-0.5;rotation=90;" parent="1" vertex="1">
          <mxGeometry x="-9.999999999999972" y="344.37" width="40.95" height="125.63" as="geometry" />
        </mxCell>
        <mxCell id="i4SUyxcihNLNijWqHPjk-11" value="P1&lt;br&gt;下料排产" style="ellipse;whiteSpace=wrap;html=1;" parent="1" vertex="1">
          <mxGeometry x="-89.99999999999999" y="230" width="160" height="50" as="geometry" />
        </mxCell>
        <mxCell id="i4SUyxcihNLNijWqHPjk-20" style="edgeStyle=orthogonalEdgeStyle;rounded=0;orthogonalLoop=1;jettySize=auto;html=1;entryX=0.5;entryY=0;entryDx=0;entryDy=0;" parent="1" source="i4SUyxcihNLNijWqHPjk-14" target="i4SUyxcihNLNijWqHPjk-17" edge="1">
          <mxGeometry relative="1" as="geometry" />
        </mxCell>
        <mxCell id="i4SUyxcihNLNijWqHPjk-14" value="P2&lt;br&gt;冷作车间任务调度" style="ellipse;whiteSpace=wrap;html=1;" parent="1" vertex="1">
          <mxGeometry x="770" y="280" width="160" height="50" as="geometry" />
        </mxCell>
        <mxCell id="i4SUyxcihNLNijWqHPjk-16" value="" style="endArrow=classic;html=1;rounded=0;exitX=1;exitY=0.5;exitDx=0;exitDy=0;entryX=0;entryY=0.5;entryDx=0;entryDy=0;" parent="1" source="i4SUyxcihNLNijWqHPjk-1" target="i4SUyxcihNLNijWqHPjk-14" edge="1">
          <mxGeometry width="50" height="50" relative="1" as="geometry">
            <mxPoint x="707" y="390" as="sourcePoint" />
            <mxPoint x="827" y="390" as="targetPoint" />
          </mxGeometry>
        </mxCell>
        <mxCell id="i4SUyxcihNLNijWqHPjk-23" style="edgeStyle=orthogonalEdgeStyle;rounded=0;orthogonalLoop=1;jettySize=auto;html=1;" parent="1" source="i4SUyxcihNLNijWqHPjk-17" target="i4SUyxcihNLNijWqHPjk-22" edge="1">
          <mxGeometry relative="1" as="geometry" />
        </mxCell>
        <mxCell id="i4SUyxcihNLNijWqHPjk-24" value="图纸" style="edgeLabel;html=1;align=center;verticalAlign=middle;resizable=0;points=[];" parent="i4SUyxcihNLNijWqHPjk-23" vertex="1" connectable="0">
          <mxGeometry x="-0.1926" y="2" relative="1" as="geometry">
            <mxPoint as="offset" />
          </mxGeometry>
        </mxCell>
        <mxCell id="i4SUyxcihNLNijWqHPjk-17" value="P3&lt;br&gt;冷作车间任务图纸打印" style="ellipse;whiteSpace=wrap;html=1;" parent="1" vertex="1">
          <mxGeometry x="770" y="420" width="160" height="50" as="geometry" />
        </mxCell>
        <mxCell id="i4SUyxcihNLNijWqHPjk-21" style="edgeStyle=orthogonalEdgeStyle;rounded=0;orthogonalLoop=1;jettySize=auto;html=1;entryX=1;entryY=0.5;entryDx=0;entryDy=0;exitX=0;exitY=0.5;exitDx=0;exitDy=0;" parent="1" source="i4SUyxcihNLNijWqHPjk-27" target="i4SUyxcihNLNijWqHPjk-17" edge="1">
          <mxGeometry relative="1" as="geometry">
            <mxPoint x="1017.6600000000001" y="444.99708722379137" as="sourcePoint" />
          </mxGeometry>
        </mxCell>
        <mxCell id="i4SUyxcihNLNijWqHPjk-28" value="通知" style="edgeLabel;html=1;align=center;verticalAlign=middle;resizable=0;points=[];" parent="i4SUyxcihNLNijWqHPjk-21" vertex="1" connectable="0">
          <mxGeometry x="0.0867" y="-5" relative="1" as="geometry">
            <mxPoint as="offset" />
          </mxGeometry>
        </mxCell>
        <mxCell id="i4SUyxcihNLNijWqHPjk-36" style="edgeStyle=orthogonalEdgeStyle;rounded=0;orthogonalLoop=1;jettySize=auto;html=1;entryX=0.5;entryY=0;entryDx=0;entryDy=0;" parent="1" source="i4SUyxcihNLNijWqHPjk-22" target="i4SUyxcihNLNijWqHPjk-35" edge="1">
          <mxGeometry relative="1" as="geometry" />
        </mxCell>
        <mxCell id="i4SUyxcihNLNijWqHPjk-22" value="P4&lt;br&gt;冷作车间任务分配至段长" style="ellipse;whiteSpace=wrap;html=1;" parent="1" vertex="1">
          <mxGeometry x="770" y="560" width="160" height="50" as="geometry" />
        </mxCell>
        <mxCell id="i4SUyxcihNLNijWqHPjk-27" value="计划群" style="rounded=0;whiteSpace=wrap;html=1;" parent="1" vertex="1">
          <mxGeometry x="1010" y="120" width="120" height="60" as="geometry" />
        </mxCell>
        <mxCell id="i4SUyxcihNLNijWqHPjk-30" style="edgeStyle=orthogonalEdgeStyle;rounded=0;orthogonalLoop=1;jettySize=auto;html=1;entryX=1;entryY=0.5;entryDx=0;entryDy=0;" parent="1" source="i4SUyxcihNLNijWqHPjk-29" target="i4SUyxcihNLNijWqHPjk-22" edge="1">
          <mxGeometry relative="1" as="geometry" />
        </mxCell>
        <mxCell id="i4SUyxcihNLNijWqHPjk-34" value="图纸" style="edgeLabel;html=1;align=center;verticalAlign=middle;resizable=0;points=[];" parent="i4SUyxcihNLNijWqHPjk-30" vertex="1" connectable="0">
          <mxGeometry x="-0.0379" relative="1" as="geometry">
            <mxPoint as="offset" />
          </mxGeometry>
        </mxCell>
        <mxCell id="i4SUyxcihNLNijWqHPjk-31" style="edgeStyle=orthogonalEdgeStyle;rounded=0;orthogonalLoop=1;jettySize=auto;html=1;entryX=1;entryY=0.5;entryDx=0;entryDy=0;" parent="1" source="i4SUyxcihNLNijWqHPjk-29" target="i4SUyxcihNLNijWqHPjk-17" edge="1">
          <mxGeometry relative="1" as="geometry">
            <Array as="points">
              <mxPoint x="1090" y="445" />
            </Array>
          </mxGeometry>
        </mxCell>
        <mxCell id="i4SUyxcihNLNijWqHPjk-33" value="图纸" style="edgeLabel;html=1;align=center;verticalAlign=middle;resizable=0;points=[];" parent="i4SUyxcihNLNijWqHPjk-31" vertex="1" connectable="0">
          <mxGeometry x="-0.1831" y="-1" relative="1" as="geometry">
            <mxPoint as="offset" />
          </mxGeometry>
        </mxCell>
        <mxCell id="i4SUyxcihNLNijWqHPjk-29" value="mes系统" style="rounded=0;whiteSpace=wrap;html=1;" parent="1" vertex="1">
          <mxGeometry x="1010" y="850" width="120" height="60" as="geometry" />
        </mxCell>
        <mxCell id="i4SUyxcihNLNijWqHPjk-38" style="edgeStyle=orthogonalEdgeStyle;rounded=0;orthogonalLoop=1;jettySize=auto;html=1;entryX=1;entryY=0.5;entryDx=0;entryDy=0;" parent="1" source="i4SUyxcihNLNijWqHPjk-35" target="i4SUyxcihNLNijWqHPjk-37" edge="1">
          <mxGeometry relative="1" as="geometry" />
        </mxCell>
        <mxCell id="i4SUyxcihNLNijWqHPjk-35" value="P5&lt;br&gt;冷作任务分配至工作点" style="ellipse;whiteSpace=wrap;html=1;" parent="1" vertex="1">
          <mxGeometry x="770" y="740" width="160" height="50" as="geometry" />
        </mxCell>
        <mxCell id="i4SUyxcihNLNijWqHPjk-41" style="edgeStyle=orthogonalEdgeStyle;rounded=0;orthogonalLoop=1;jettySize=auto;html=1;" parent="1" source="i4SUyxcihNLNijWqHPjk-37" target="i4SUyxcihNLNijWqHPjk-40" edge="1">
          <mxGeometry relative="1" as="geometry" />
        </mxCell>
        <mxCell id="i4SUyxcihNLNijWqHPjk-37" value="P6&lt;br&gt;操作员冷作加工" style="ellipse;whiteSpace=wrap;html=1;" parent="1" vertex="1">
          <mxGeometry x="530" y="740" width="160" height="50" as="geometry" />
        </mxCell>
        <mxCell id="i4SUyxcihNLNijWqHPjk-42" style="edgeStyle=orthogonalEdgeStyle;rounded=0;orthogonalLoop=1;jettySize=auto;html=1;" parent="1" source="i4SUyxcihNLNijWqHPjk-40" target="i4SUyxcihNLNijWqHPjk-22" edge="1">
          <mxGeometry relative="1" as="geometry" />
        </mxCell>
        <mxCell id="i4SUyxcihNLNijWqHPjk-45" value="图纸" style="edgeLabel;html=1;align=center;verticalAlign=middle;resizable=0;points=[];" parent="i4SUyxcihNLNijWqHPjk-42" vertex="1" connectable="0">
          <mxGeometry x="-0.101" y="1" relative="1" as="geometry">
            <mxPoint x="-1" as="offset" />
          </mxGeometry>
        </mxCell>
        <mxCell id="i4SUyxcihNLNijWqHPjk-44" style="edgeStyle=orthogonalEdgeStyle;rounded=0;orthogonalLoop=1;jettySize=auto;html=1;entryX=0.5;entryY=1;entryDx=0;entryDy=0;" parent="1" source="i4SUyxcihNLNijWqHPjk-40" target="i4SUyxcihNLNijWqHPjk-43" edge="1">
          <mxGeometry relative="1" as="geometry" />
        </mxCell>
        <mxCell id="i4SUyxcihNLNijWqHPjk-40" value="P7&lt;br&gt;加工完成" style="ellipse;whiteSpace=wrap;html=1;" parent="1" vertex="1">
          <mxGeometry x="530" y="560" width="160" height="50" as="geometry" />
        </mxCell>
        <mxCell id="i4SUyxcihNLNijWqHPjk-47" style="edgeStyle=orthogonalEdgeStyle;rounded=0;orthogonalLoop=1;jettySize=auto;html=1;entryX=1;entryY=0.5;entryDx=0;entryDy=0;" parent="1" source="i4SUyxcihNLNijWqHPjk-43" target="i4SUyxcihNLNijWqHPjk-46" edge="1">
          <mxGeometry relative="1" as="geometry" />
        </mxCell>
        <mxCell id="i4SUyxcihNLNijWqHPjk-43" value="P8&lt;br&gt;冷作结果上传" style="ellipse;whiteSpace=wrap;html=1;" parent="1" vertex="1">
          <mxGeometry x="530" y="420" width="160" height="50" as="geometry" />
        </mxCell>
        <mxCell id="i4SUyxcihNLNijWqHPjk-46" value="mes系统" style="rounded=0;whiteSpace=wrap;html=1;" parent="1" vertex="1">
          <mxGeometry x="320" y="850" width="120" height="60" as="geometry" />
        </mxCell>
        <mxCell id="i4SUyxcihNLNijWqHPjk-50" value="制造部计划员" style="rounded=0;whiteSpace=wrap;html=1;" parent="1" vertex="1">
          <mxGeometry x="-10" y="470" width="120" height="40" as="geometry" />
        </mxCell>
        <mxCell id="LXOeiojcRxOnee-3cA6O-1" value="PDF图纸" style="shape=cylinder3;whiteSpace=wrap;html=1;boundedLbl=1;backgroundOutline=1;size=15;" vertex="1" parent="1">
          <mxGeometry x="230" y="440" width="60" height="80" as="geometry" />
        </mxCell>
        <mxCell id="LXOeiojcRxOnee-3cA6O-3" style="edgeStyle=orthogonalEdgeStyle;rounded=0;orthogonalLoop=1;jettySize=auto;html=1;entryX=0.5;entryY=0;entryDx=0;entryDy=0;" edge="1" parent="1">
          <mxGeometry relative="1" as="geometry">
            <mxPoint x="610" y="160" as="sourcePoint" />
            <mxPoint x="610" y="280" as="targetPoint" />
          </mxGeometry>
        </mxCell>
        <mxCell id="LXOeiojcRxOnee-3cA6O-4" value="XML格式的BOM和PDF图纸" style="edgeLabel;html=1;align=center;verticalAlign=middle;resizable=0;points=[];" vertex="1" connectable="0" parent="LXOeiojcRxOnee-3cA6O-3">
          <mxGeometry x="-0.1111" relative="1" as="geometry">
            <mxPoint as="offset" />
          </mxGeometry>
        </mxCell>
        <mxCell id="LXOeiojcRxOnee-3cA6O-2" value="技术部" style="rounded=0;whiteSpace=wrap;html=1;" vertex="1" parent="1">
          <mxGeometry x="550" y="120" width="120" height="40" as="geometry" />
        </mxCell>
        <mxCell id="LXOeiojcRxOnee-3cA6O-8" style="edgeStyle=orthogonalEdgeStyle;rounded=0;orthogonalLoop=1;jettySize=auto;html=1;" edge="1" parent="1" source="LXOeiojcRxOnee-3cA6O-7" target="LXOeiojcRxOnee-3cA6O-2">
          <mxGeometry relative="1" as="geometry" />
        </mxCell>
        <mxCell id="LXOeiojcRxOnee-3cA6O-7" value="" style="shape=partialRectangle;whiteSpace=wrap;html=1;bottom=1;right=1;left=1;top=0;fillColor=none;routingCenterX=-0.5;rotation=90;" vertex="1" parent="1">
          <mxGeometry x="820" y="77.18" width="40.95" height="125.63" as="geometry" />
        </mxCell>
        <mxCell id="LXOeiojcRxOnee-3cA6O-9" value="BOM存储" style="text;html=1;strokeColor=none;fillColor=none;align=center;verticalAlign=middle;whiteSpace=wrap;rounded=0;" vertex="1" parent="1">
          <mxGeometry x="820" y="125" width="60" height="30" as="geometry" />
        </mxCell>
      </root>
    </mxGraphModel>
  </diagram>
</mxfile>
